<?xml version="1.0" standalone="no"?>
<!DOCTYPE svg PUBLIC "-//W3C//DTD SVG 20010904//EN"
 "http://www.w3.org/TR/2001/REC-SVG-20010904/DTD/svg10.dtd">
<svg version="1.0" xmlns="http://www.w3.org/2000/svg"
 width="1440.000000pt" height="1370.000000pt" viewBox="0 0 1440.000000 1370.000000"
 preserveAspectRatio="xMidYMid meet">

<g transform="translate(0.000000,1370.000000) scale(0.100000,-0.100000)"
fill="#008494" stroke="none">
<path d="M6125 13685 c-33 -8 -66 -14 -72 -14 -7 -1 -13 -5 -13 -10 0 -5 30
-14 67 -21 l68 -13 -70 -17 c-94 -22 -162 -59 -213 -114 -47 -51 -60 -86 -43
-122 12 -27 10 -35 -23 -74 -12 -14 -14 -19 -4 -12 23 18 30 2 22 -50 -4 -32
-3 -39 5 -28 6 8 11 22 11 31 0 37 64 140 116 188 77 71 144 95 264 95 119 0
187 -24 263 -94 156 -142 147 -360 -23 -553 l-32 -37 -108 0 c-85 0 -109 -3
-113 -15 -5 -12 -13 -12 -59 2 -132 39 -230 119 -288 236 -18 37 -34 67 -35
67 -9 0 21 -114 40 -152 13 -27 22 -48 20 -48 -3 0 -23 16 -45 36 -22 20 -40
30 -40 23 0 -25 78 -144 122 -185 45 -43 119 -96 126 -90 2 2 -16 23 -40 45
l-43 41 55 -25 c30 -13 79 -30 108 -36 64 -15 68 -29 6 -29 -27 0 -43 -4 -39
-10 3 -5 17 -10 30 -10 36 0 55 -10 55 -31 0 -13 -7 -19 -21 -19 -17 0 -20 -4
-15 -24 6 -26 0 -37 -19 -30 -8 3 -12 13 -10 23 5 26 -11 49 -25 35 -7 -7 -10
-50 -8 -115 l3 -104 48 -3 c34 -2 47 -7 47 -18 0 -9 -9 -18 -19 -21 -12 -3
-22 -16 -24 -32 l-4 -26 -2 28 c-1 34 -29 47 -46 23 -17 -22 -8 -53 16 -59 14
-4 19 -14 19 -41 0 -36 0 -36 -44 -36 -24 0 -46 -4 -48 -9 -1 -4 -73 -11 -158
-15 -809 -35 -1538 -196 -2103 -463 -64 -31 -116 -58 -114 -59 2 -2 58 19 125
46 433 176 992 310 1533 369 280 31 273 30 607 37 l312 7 0 -32 c0 -24 4 -31
20 -31 11 0 20 5 20 10 0 6 6 10 14 10 8 0 13 -8 12 -17 -3 -17 -23 -18 -277
-17 -723 4 -1323 -110 -1994 -378 -591 -236 -1158 -577 -1655 -996 -163 -138
-488 -464 -620 -622 -280 -336 -467 -623 -659 -1010 -324 -651 -497 -1254
-578 -2010 -22 -208 -25 -832 -5 -1040 69 -704 238 -1337 521 -1950 151 -325
424 -741 734 -1113 l107 -129 -59 -39 c-74 -49 -193 -173 -254 -266 -27 -40
-95 -170 -153 -290 -193 -399 -228 -466 -305 -583 -84 -126 -306 -399 -518
-638 -206 -231 -219 -248 -232 -294 -12 -46 -7 -97 17 -170 28 -85 129 -153
273 -183 83 -17 227 -23 701 -30 471 -7 674 -16 823 -37 147 -20 239 0 320 71
79 70 251 344 592 944 99 174 184 317 188 317 5 0 52 -25 105 -56 123 -71 407
-209 537 -262 122 -49 404 -144 417 -140 5 2 -33 19 -84 37 -247 91 -600 256
-818 383 -52 30 -113 66 -135 79 -207 120 -538 358 -765 549 -171 143 -524
497 -659 659 -326 391 -574 783 -779 1231 -354 774 -523 1521 -526 2335 -1
279 7 459 29 651 68 585 199 1089 426 1634 100 238 271 539 461 810 764 1087
1784 1852 2948 2210 393 121 884 210 1245 225 l120 5 -145 -20 c-911 -125
-1760 -428 -2501 -895 -373 -235 -670 -476 -989 -801 -533 -545 -924 -1161
-1227 -1932 -69 -177 -98 -282 -143 -533 -135 -732 -152 -1548 -49 -2259 110
-757 369 -1418 832 -2115 657 -990 1590 -1754 2687 -2198 485 -197 872 -300
1390 -372 99 -13 655 -17 823 -6 717 50 1352 194 1977 448 150 61 492 226 614
297 44 25 80 45 81 43 1 -1 7 -37 13 -79 31 -207 130 -394 399 -748 77 -102
174 -237 215 -300 42 -63 84 -122 94 -131 15 -13 51 -18 174 -23 85 -4 187 -9
225 -11 101 -6 241 -14 385 -20 69 -3 148 -8 175 -10 28 -2 120 -7 205 -10 85
-3 169 -8 185 -10 52 -6 376 -20 473 -20 l93 0 70 167 69 167 -258 388 c-293
439 -478 723 -625 957 -198 318 -376 568 -520 730 l-44 50 106 121 c239 274
512 654 661 920 48 86 34 69 -70 -90 -245 -370 -499 -677 -855 -1032 -228
-228 -345 -334 -536 -489 -567 -459 -1055 -731 -1737 -968 -183 -63 -190 -57
-10 9 139 51 398 167 398 179 0 3 -20 -3 -44 -14 -135 -57 -688 -221 -702
-207 -2 2 15 9 38 16 200 60 573 218 801 341 613 329 1128 719 1682 1273 121
121 213 212 204 201 -137 -168 -452 -493 -684 -705 -242 -221 -723 -581 -933
-699 -23 -13 -40 -26 -37 -28 10 -10 252 128 410 234 450 300 902 721 1338
1244 316 380 474 609 666 966 226 422 389 831 491 1239 l48 190 146 3 146 3 0
-111 c0 -91 3 -110 15 -110 12 0 15 17 15 90 0 73 3 90 15 90 13 0 15 -51 15
-400 0 -349 -2 -400 -15 -400 -12 0 -15 17 -15 90 0 73 -3 90 -15 90 -11 0
-15 12 -15 45 0 33 -4 45 -15 45 -13 0 -15 -27 -15 -187 0 -105 5 -206 11
-228 16 -58 53 -102 111 -131 105 -53 128 -55 873 -61 380 -3 688 -3 685 -1
-3 3 -124 8 -270 12 -146 4 -301 9 -345 11 -44 3 -161 7 -260 10 -291 8 -457
15 -505 21 -121 14 -191 63 -204 144 -8 53 -2 61 18 22 20 -39 69 -69 132 -81
27 -5 127 -12 222 -15 160 -6 603 -29 752 -41 36 -2 124 -7 195 -10 72 -3 144
-8 160 -10 17 -2 98 -7 181 -11 137 -6 154 -5 196 14 58 25 86 62 146 197 72
162 72 163 81 266 9 101 15 1215 13 2354 -2 731 -6 831 -50 1059 l-17 90 0
-400 c-1 -281 -4 -415 -13 -454 -14 -61 -27 -88 -38 -77 -12 12 -72 781 -62
792 17 20 28 -21 29 -115 1 -78 3 -88 10 -55 12 60 11 322 -2 422 -13 101 -29
132 -29 57 0 -127 -13 -264 -26 -264 -9 0 -13 61 -16 265 -2 219 -6 267 -18
279 -17 15 -135 21 -615 31 -148 3 -290 8 -315 10 -25 2 -230 7 -456 11 -406
7 -412 7 -455 -14 -121 -59 -180 -284 -174 -667 5 -376 7 -409 15 -389 4 11
11 81 15 154 13 225 23 198 24 -62 l1 -248 -150 0 c-149 0 -150 0 -150 23 0
35 -66 317 -111 477 -304 1069 -892 2036 -1635 2689 -493 433 -1146 827 -1799
1084 -546 215 -1052 333 -1587 369 l-178 12 0 153 c0 146 1 153 20 153 16 0
20 7 20 30 0 19 -5 30 -14 30 -18 0 -23 16 -22 63 2 37 4 39 59 62 110 45 185
117 247 240 45 91 55 137 12 60 -74 -134 -134 -205 -173 -205 -28 0 -24 8 30
56 136 122 170 325 87 517 -35 81 -157 167 -314 222 -61 21 -64 24 -32 24 93
2 230 -54 311 -127 57 -50 57 -43 0 26 -108 130 -305 195 -476 157z m220
-1020 c0 -5 -19 -11 -42 -13 -34 -3 -43 0 -43 13 0 13 9 16 43 13 23 -2 42 -7
42 -13z m-152 -117 c5 -18 -3 -48 -14 -48 -5 0 -9 14 -9 30 0 30 15 41 23 18z
m-23 -93 c0 -8 -7 -15 -15 -15 -8 0 -15 7 -15 15 0 8 7 15 15 15 8 0 15 -7 15
-15z m54 -142 c4 -4 -3 -15 -16 -25 l-23 -18 23 -6 c22 -6 30 -28 14 -38 -5
-3 -18 -2 -30 1 -18 4 -22 13 -22 49 0 39 2 44 23 44 13 0 27 -3 31 -7z m621
-204 c598 -65 1161 -240 1760 -548 391 -201 757 -446 1090 -731 163 -139 496
-475 635 -640 725 -860 1218 -1968 1325 -2975 13 -128 20 -304 11 -294 -2 2
-6 42 -10 89 -15 196 -60 482 -111 697 -51 214 -171 597 -205 649 -11 18 -11
18 -5 -1 18 -57 88 -349 114 -480 35 -178 74 -428 96 -615 21 -184 17 -227 -5
-60 -123 924 -445 1761 -937 2438 -41 56 -76 102 -78 102 -3 0 20 -37 49 -82
296 -455 570 -1099 716 -1681 128 -507 181 -955 174 -1457 -11 -888 -223
-1720 -652 -2565 -118 -232 -213 -382 -354 -556 -516 -644 -1196 -1188 -1923
-1540 -698 -337 -1404 -499 -2185 -499 -174 0 -454 13 -550 25 -19 2 -78 9
-130 15 -469 56 -1033 198 -1360 343 -466 207 -809 409 -1195 702 -66 50 -142
107 -170 125 -262 178 -771 738 -1077 1185 -191 279 -269 435 -468 930 -83
209 -171 417 -195 461 -93 174 -176 619 -203 1086 -9 171 -9 637 0 798 13 205
36 372 84 605 135 656 390 1286 729 1805 214 328 435 585 792 922 779 735
1776 1202 2856 1338 572 72 1271 37 1837 -92 736 -167 1482 -517 2090 -981
256 -196 548 -465 745 -688 184 -208 190 -212 102 -79 -275 413 -715 844
-1182 1159 -696 469 -1461 739 -2355 830 -92 10 -91 10 50 6 80 -2 213 -14
295 -25 678 -95 1345 -341 2061 -760 l39 -22 -40 38 c-22 22 -65 61 -95 88
-61 55 -60 54 130 -54 163 -93 180 -102 180 -96 0 8 -183 126 -316 204 -752
442 -1662 744 -2474 822 -121 12 -146 21 -112 39 14 7 19 18 17 32 -4 21 -3
22 113 15 64 -4 198 -16 297 -27z m3948 -2442 c235 -352 435 -756 604 -1221
29 -82 52 -150 50 -152 -2 -2 -21 42 -42 99 -169 450 -441 993 -686 1366 -27
40 -42 68 -34 61 7 -6 56 -75 108 -153z m3137 -1012 c0 -12 -19 -15 -115 -15
-96 0 -115 3 -115 15 0 12 19 15 115 15 96 0 115 -3 115 -15z m-1835 -141 c-9
-22 -23 -64 -31 -94 l-14 -55 5 54 c2 29 14 73 26 98 26 53 37 51 14 -3z
m1693 -1916 l-3 -1813 -752 -3 -753 -2 0 1815 0 1815 755 0 755 0 -2 -1812z
m-1807 685 c1 -82 3 -166 4 -188 1 -22 5 -247 10 -500 5 -253 9 -482 11 -510
1 -41 5 -477 4 -510 0 -6 -48 -10 -125 -10 -105 0 -125 2 -125 15 0 8 7 101
16 205 18 224 26 889 13 1080 -11 156 -44 418 -63 497 -7 32 -11 60 -8 63 3 3
63 5 134 5 l128 0 1 -147z m2145 -503 c0 -140 -3 -298 -6 -350 l-5 -95 -6 75
c-6 73 -4 659 2 730 7 83 15 -123 15 -360z m-142 25 c6 -125 11 -338 20 -770
6 -242 -7 -175 -23 124 -10 191 -16 789 -7 780 2 -2 7 -62 10 -134z m91 -702
c4 -171 8 -331 10 -355 7 -101 20 -606 20 -763 0 -250 -41 -412 -127 -510 -71
-81 -61 -79 -413 -71 -171 4 -322 8 -335 10 -14 2 -81 7 -150 11 -69 3 -141 8
-160 10 -121 14 -323 36 -430 46 -270 25 -369 77 -372 195 -1 56 13 399 17
423 2 9 4 52 4 96 2 116 18 74 20 -49 2 -264 14 -472 28 -498 32 -64 124 -86
428 -103 55 -3 127 -8 160 -10 33 -2 134 -7 225 -10 91 -4 174 -8 186 -10 30
-5 494 -20 589 -20 44 1 96 6 116 13 50 17 107 75 135 136 44 98 46 141 39
986 -4 437 -5 793 -2 790 2 -3 8 -145 12 -317z m-2633 -1289 c-160 -485 -413
-1018 -629 -1321 -50 -70 -70 -87 -25 -20 68 98 212 356 307 548 147 297 275
608 366 887 19 57 35 99 37 94 1 -5 -24 -89 -56 -188z m-9969 -1076 c20 -35
71 -120 115 -190 44 -71 78 -128 76 -128 -8 0 -98 128 -144 206 -45 76 -93
174 -85 174 2 0 19 -28 38 -62z m497 -1000 c336 -377 751 -738 1144 -996 72
-47 135 -89 140 -93 5 -5 -8 -27 -32 -53 -86 -93 -290 -384 -385 -549 -15 -26
-30 -47 -32 -47 -2 0 15 44 39 97 74 169 142 369 134 395 -2 6 -22 -17 -43
-53 -54 -90 -283 -430 -344 -512 -28 -38 -90 -122 -136 -187 -89 -124 -143
-180 -174 -180 -10 0 -41 4 -68 9 -60 12 -460 66 -903 122 -179 22 -326 42
-328 44 -1 1 46 87 106 191 377 653 453 787 450 789 -6 6 -129 -164 -207 -287
-68 -109 -190 -313 -344 -578 -27 -47 -50 -98 -51 -115 -1 -35 -4 -35 219 -65
83 -12 308 -46 500 -77 566 -89 629 -98 654 -95 36 5 143 118 250 262 52 69
96 127 98 130 8 7 -30 -67 -93 -183 -69 -126 -111 -178 -180 -224 -61 -40 -41
-40 -267 1 -163 30 -391 62 -502 70 -168 13 -215 18 -375 41 -335 47 -400 66
-400 116 0 11 17 43 38 72 68 93 303 447 296 447 -3 0 -24 -16 -47 -35 -22
-19 -42 -33 -44 -31 -2 2 29 70 69 152 40 82 83 172 95 199 24 53 23 48 -13
-85 -28 -100 -26 -99 88 85 207 332 407 730 489 974 16 47 29 89 29 95 0 6
-47 -82 -104 -195 -110 -219 -122 -242 -225 -414 -65 -110 -129 -205 -137
-205 -3 0 89 185 203 412 114 226 210 416 212 422 2 6 -45 -56 -104 -139 -59
-82 -112 -154 -118 -160 -22 -22 109 216 168 305 64 95 150 200 164 200 4 0
36 -33 71 -72z m8665 -334 c105 -152 192 -281 194 -287 2 -6 -74 76 -169 183
-172 195 -227 254 -218 235 3 -5 55 -93 115 -195 96 -160 114 -197 133 -275
54 -220 132 -400 328 -760 124 -229 317 -534 329 -521 2 2 -47 91 -110 197
-129 222 -196 345 -255 474 -76 168 -202 456 -202 463 0 11 109 -189 327 -603
113 -214 227 -432 254 -482 l49 -93 -655 0 -655 0 0 -40 c0 -50 -23 -54 -70
-10 -24 23 -42 30 -71 30 -38 0 -39 1 -74 69 -74 148 -189 323 -309 471 -70
86 -247 272 -253 266 -3 -2 31 -55 74 -118 44 -62 136 -196 204 -298 209 -308
194 -292 -119 126 -132 177 -245 324 -250 328 -5 3 38 -88 95 -202 78 -154 96
-198 73 -172 -43 49 -130 198 -179 309 -68 152 -77 131 106 248 343 219 660
480 998 822 60 61 112 111 115 111 3 -1 91 -125 195 -276z m-7634 -301 c13
-16 12 -17 -3 -4 -17 13 -22 21 -14 21 2 0 10 -8 17 -17z m219 -141 c641 -406
1431 -688 2210 -788 439 -56 1021 -54 1448 4 34 5 59 5 55 1 -10 -9 -317 -47
-463 -56 -151 -10 -633 -10 -785 0 -901 59 -1797 367 -2538 870 -122 83 -174
128 -71 61 33 -21 97 -62 144 -92z m45 -159 c618 -371 1366 -636 2101 -742
354 -52 560 -66 951 -66 154 0 268 -4 263 -9 -11 -11 -611 -14 -790 -3 -938
53 -1848 342 -2550 810 -124 83 -290 205 -290 213 0 2 48 -29 108 -70 59 -40
152 -100 207 -133z m7714 -33 c107 -158 195 -327 313 -600 27 -63 85 -184 128
-268 79 -152 79 -153 65 -191 -16 -47 -45 -104 -50 -99 -2 1 -6 21 -9 44 -5
30 -3 44 9 54 29 24 16 71 -68 239 -92 183 -410 766 -530 971 -39 68 79 -58
142 -150z m-4002 -586 c-3 -3 -12 -4 -19 -1 -8 3 -5 6 6 6 11 1 17 -2 13 -5z
m843 -61 c-280 -92 -747 -183 -1150 -225 -170 -18 -840 -17 -1020 0 -263 26
-640 86 -626 99 2 2 53 -2 113 -11 303 -43 542 -59 908 -60 236 0 566 9 629
19 12 2 62 6 111 10 198 14 453 48 650 85 119 23 367 83 406 99 13 5 31 10 39
9 8 0 -19 -11 -60 -25z m-6923 -91 c-20 -49 -81 -152 -90 -152 -1 0 23 51 53
114 58 119 78 141 37 38z m5776 -39 c-7 -2 -21 -2 -30 0 -10 3 -4 5 12 5 17 0
24 -2 18 -5z m4854 -211 c4 -20 7 -43 6 -49 -2 -41 -6 -43 -12 -8 -4 22 -11
55 -15 74 -6 23 -5 31 3 27 5 -4 14 -23 18 -44z m-10873 -10 c30 -18 54 -47
45 -56 -3 -3 -23 1 -44 9 -46 16 -111 19 -120 6 -3 -5 -6 -32 -6 -60 -2 -53
-12 -67 -23 -28 -11 40 -7 145 6 149 25 9 114 -4 142 -20z m135 -32 c29 -24
50 -84 44 -124 -7 -46 -55 -127 -97 -160 -20 -16 -38 -27 -40 -25 -3 2 15 44
40 93 48 96 56 153 29 206 -18 35 -8 39 24 10z m-63 -75 c15 -37 -82 -165
-124 -165 -29 0 -59 149 -35 173 3 4 39 7 80 7 56 0 75 -4 79 -15z m10884 -34
c-11 -28 -46 -51 -75 -51 -21 0 -19 -12 10 -55 14 -20 20 -35 13 -33 -17 6
-65 68 -73 96 -6 20 -3 22 39 22 47 0 70 14 82 53 4 13 9 17 12 9 2 -7 -1 -26
-8 -41z m-1678 22 c8 -10 18 -27 22 -38 7 -20 8 -20 22 -1 12 18 14 18 14 3 0
-20 -26 -87 -34 -87 -2 0 -12 25 -20 54 -9 30 -21 58 -26 61 -12 8 -13 25 -2
25 5 0 16 -8 24 -17z m1836 -88 c-5 -58 -25 -90 -66 -106 -13 -5 -30 -26 -39
-46 -11 -24 -18 -32 -20 -22 -7 28 16 68 52 91 33 22 44 43 59 111 11 46 19
30 14 -28z m-1030 -22 c3 -10 -18 -13 -82 -13 -79 0 -105 7 -89 24 13 12 166
2 171 -11z"/>
<path d="M6125 7639 c-102 -10 -188 -35 -292 -84 -95 -45 -226 -129 -259 -167
-11 -12 13 2 51 29 87 63 178 113 276 152 334 132 720 52 998 -205 34 -31 61
-61 61 -66 0 -6 -27 15 -59 45 -98 90 -132 107 -45 21 137 -134 215 -264 270
-449 24 -80 27 -108 28 -245 1 -124 -3 -167 -17 -215 -22 -69 -77 -190 -101
-220 -8 -11 0 12 19 51 74 152 103 337 81 518 -8 63 -49 201 -67 226 -9 12
-10 11 -4 -5 52 -143 58 -179 59 -335 1 -167 -13 -244 -61 -345 -13 -27 -20
-41 -17 -30 101 313 98 514 -11 743 -19 41 -32 78 -29 83 3 5 0 8 -8 7 -7 -2
-12 5 -12 14 1 10 -1 16 -5 14 -3 -1 -26 22 -50 52 -24 30 -38 51 -32 48 16
-10 14 9 -2 23 -8 6 -18 7 -22 3 -5 -4 -5 -2 -1 5 7 12 -82 90 -137 119 -16 9
-48 30 -71 48 -49 37 -125 70 -223 96 -38 10 -57 19 -43 19 24 2 24 2 5 13
-12 7 -70 11 -150 11 -293 0 -515 -90 -699 -283 -251 -263 -335 -607 -230
-943 71 -224 253 -460 414 -536 21 -10 22 -9 6 1 -98 66 -210 175 -275 268
-77 111 -144 273 -155 378 -3 26 -3 38 0 27 95 -353 227 -540 486 -688 43 -24
75 -47 70 -52 -4 -5 -1 -5 6 -1 17 10 54 -3 46 -16 -4 -7 -2 -8 4 -4 6 4 30 1
52 -5 24 -7 36 -15 29 -20 -7 -4 1 -10 19 -14 18 -3 36 -4 41 -1 5 4 11 1 13
-5 6 -17 201 -20 321 -4 57 7 130 23 162 34 33 12 61 21 63 21 2 0 0 4 -3 10
-3 5 0 7 7 5 8 -3 41 9 74 26 238 127 401 314 485 558 27 77 22 88 -6 14 -53
-138 -116 -246 -195 -335 -59 -68 -69 -59 -14 12 26 33 51 57 57 53 5 -3 7 0
5 8 -7 20 11 51 24 43 8 -5 9 -1 5 10 -4 9 -3 15 2 12 10 -7 42 52 75 139 122
327 94 611 -87 880 -153 228 -382 382 -632 424 -83 14 -217 19 -300 10z m-85
-113 c-69 -26 -87 -28 -50 -7 19 11 46 20 60 20 22 0 20 -2 -10 -13z m440 -75
c146 -49 231 -102 341 -211 84 -84 101 -107 147 -200 143 -290 126 -584 -49
-841 -95 -140 -227 -241 -395 -302 -342 -123 -735 8 -955 317 -27 38 -49 65
-49 61 0 -17 54 -102 107 -167 32 -41 46 -65 36 -62 -28 9 55 -62 120 -103 57
-36 77 -54 35 -32 -91 47 -221 166 -285 259 -74 110 -144 296 -142 384 0 32 5
20 20 -53 11 -52 25 -102 30 -110 9 -13 10 -13 5 3 -4 10 -14 62 -22 115 -53
322 81 665 325 831 83 56 190 105 281 130 62 16 99 19 215 17 127 -3 149 -6
235 -36z m-694 -24 c-32 -21 -120 -89 -161 -126 -39 -35 -39 -34 5 12 41 44
153 128 169 126 3 0 -2 -6 -13 -12z m-187 -94 c-103 -106 -130 -142 -180 -236
-43 -81 -53 -85 -13 -4 47 92 105 170 186 250 43 42 82 77 85 77 4 0 -32 -39
-78 -87z m-278 -519 c-6 -32 -12 -85 -13 -118 l-2 -61 -3 54 c-4 53 14 197 24
188 2 -3 0 -31 -6 -63z m-14 -221 c-3 -10 -5 -4 -5 12 0 17 2 24 5 18 2 -7 2
-21 0 -30z m1664 -421 c-23 -32 -62 -78 -88 -102 l-47 -45 50 55 c27 30 65 76
82 103 18 26 35 47 38 47 3 0 -13 -26 -35 -58z m-141 -145 c0 -2 -10 -12 -22
-23 l-23 -19 19 23 c18 21 26 27 26 19z m-80 -61 c0 -2 -8 -10 -17 -17 -16
-13 -17 -12 -4 4 13 16 21 21 21 13z m-65 -46 c-3 -5 -12 -10 -18 -10 -7 0 -6
4 3 10 19 12 23 12 15 0z m-48 -24 c-24 -18 -164 -64 -218 -71 -25 -3 -4 5 46
19 50 13 110 33 135 44 53 24 61 26 37 8z m-284 -83 c-13 -2 -33 -2 -45 0 -13
2 -3 4 22 4 25 0 35 -2 23 -4z m-296 -79 c-3 -3 -12 -4 -19 -1 -8 3 -5 6 6 6
11 1 17 -2 13 -5z"/>
<path d="M6925 7250 c10 -11 20 -20 23 -20 3 0 -3 9 -13 20 -10 11 -20 20 -23
20 -3 0 3 -9 13 -20z"/>
<path d="M7046 6143 c-6 -14 -5 -15 5 -6 7 7 10 15 7 18 -3 3 -9 -2 -12 -12z"/>
<path d="M9940 852 c0 -5 23 -35 50 -66 40 -46 50 -53 50 -36 0 12 -9 34 -19
48 -20 29 -81 69 -81 54z"/>
<path d="M5933 13612 c-44 -23 -100 -77 -119 -115 -14 -25 -5 -21 52 31 38 33
80 70 94 81 31 25 17 26 -27 3z"/>
<path d="M5787 13204 c-12 -12 -7 -107 7 -139 12 -27 13 -22 9 50 -5 94 -6 99
-16 89z"/>
<path d="M13676 4258 c3 -5 10 -6 15 -3 13 9 11 12 -6 12 -8 0 -12 -4 -9 -9z"/>
</g>
</svg>
